<svg width="110" height="22" viewBox="0 0 665 103" fill="none" xmlns="http://www.w3.org/2000/svg">
  <path d="M3 9.8H27.72C37 9.8 44.08 11.8 48.96 15.8C53.92 19.8 56.4 25.52 56.4 32.96C56.4 36.48 55.56 39.64 53.88 42.44C52.28 45.16 49.96 47.36 46.92 49.04C43.88 50.64 40.32 51.48 36.24 51.56V50.84C43.76 50.92 49.6 52.8 53.76 56.48C57.92 60.16 60 65.12 60 71.36C60 78.8 57.4 84.6 52.2 88.76C47.08 92.92 39.88 95 30.6 95H3V9.8ZM30.72 83.96C36.24 83.96 40.44 82.84 43.32 80.6C46.2 78.28 47.64 75.04 47.64 70.88C47.64 66.56 46.2 63.2 43.32 60.8C40.44 58.4 36.24 57.2 30.72 57.2H14.76V83.96H30.72ZM27.96 46.28C33.4 46.28 37.44 45.2 40.08 43.04C42.72 40.8 44.04 37.64 44.04 33.56C44.04 29.4 42.72 26.24 40.08 24.08C37.44 21.92 33.4 20.84 27.96 20.84H14.76V46.28H27.96Z" fill="#FF8964" />
</svg> 