<svg width="665" height="103" viewBox="0 0 665 103" fill="none" xmlns="http://www.w3.org/2000/svg">
<path d="M3 9.8H27.72C37 9.8 44.08 11.8 48.96 15.8C53.92 19.8 56.4 25.52 56.4 32.96C56.4 36.48 55.56 39.64 53.88 42.44C52.28 45.16 49.96 47.36 46.92 49.04C43.88 50.64 40.32 51.48 36.24 51.56V50.84C43.76 50.92 49.6 52.8 53.76 56.48C57.92 60.16 60 65.12 60 71.36C60 78.8 57.4 84.6 52.2 88.76C47.08 92.92 39.88 95 30.6 95H3V9.8ZM30.72 83.96C36.24 83.96 40.44 82.84 43.32 80.6C46.2 78.28 47.64 75.04 47.64 70.88C47.64 66.56 46.2 63.2 43.32 60.8C40.44 58.4 36.24 57.2 30.72 57.2H14.76V83.96H30.72ZM27.96 46.28C33.4 46.28 37.44 45.2 40.08 43.04C42.72 40.8 44.04 37.64 44.04 33.56C44.04 29.4 42.72 26.24 40.08 24.08C37.44 21.92 33.4 20.84 27.96 20.84H14.76V46.28H27.96ZM91.993 96.44C85.913 96.44 81.033 94.36 77.353 90.2C73.753 85.96 71.953 80.04 71.953 72.44V31.16H83.473V69.32C83.473 75.24 84.473 79.6 86.473 82.4C88.473 85.12 91.553 86.48 95.713 86.48C100.353 86.48 103.993 84.96 106.633 81.92C109.273 78.8 110.593 74.48 110.593 68.96V31.16H122.113V95H111.313L111.073 78.32L112.993 79.04C111.793 84.56 109.393 88.84 105.793 91.88C102.193 94.92 97.593 96.44 91.993 96.44ZM159.386 31.16H170.906V95H159.386V31.16ZM134.066 85.04H192.626V95H134.066V85.04ZM135.266 31.16H170.186V41.12H135.266V31.16ZM158.546 9.56H170.546V21.8H158.546V9.56ZM230.019 27.68C230.019 25.2 229.299 23.28 227.859 21.92C226.499 20.48 224.579 19.76 222.099 19.76H207.219V9.8H222.699C228.939 9.8 233.619 11.4 236.739 14.6C239.939 17.72 241.539 22.36 241.539 28.52V95H230.019V27.68ZM204.819 85.04H263.379V95H204.819V85.04ZM296.573 96.44C291.212 96.44 286.492 95.08 282.413 92.36C278.413 89.64 275.333 85.76 273.173 80.72C271.093 75.68 270.053 69.8 270.053 63.08C270.053 56.36 271.093 50.48 273.173 45.44C275.333 40.4 278.413 36.52 282.413 33.8C286.492 31.08 291.212 29.72 296.573 29.72C300.733 29.72 304.493 30.72 307.853 32.72C311.212 34.64 313.733 37.12 315.413 40.16V9.8H326.933V95H316.373L316.013 85.4C314.173 89 311.573 91.76 308.213 93.68C304.853 95.52 300.973 96.44 296.573 96.44ZM298.253 85.76C301.772 85.76 304.813 84.84 307.373 83C310.013 81.16 312.013 78.56 313.373 75.2C314.733 71.76 315.413 67.72 315.413 63.08C315.413 58.36 314.733 54.32 313.373 50.96C312.013 47.52 310.013 44.92 307.373 43.16C304.813 41.32 301.693 40.4 298.013 40.4C293.053 40.4 289.133 42.4 286.253 46.4C283.453 50.4 282.053 55.96 282.053 63.08C282.053 70.12 283.492 75.68 286.372 79.76C289.253 83.76 293.212 85.76 298.253 85.76ZM341.526 9.8H367.926C373.846 9.8 379.006 10.88 383.406 13.04C387.886 15.12 391.326 18.16 393.726 22.16C396.206 26.08 397.446 30.72 397.446 36.08C397.446 41.44 396.206 46.12 393.726 50.12C391.326 54.04 387.886 57.08 383.406 59.24C379.006 61.32 373.846 62.36 367.926 62.36H353.286V95H341.526V9.8ZM366.606 51.32C372.766 51.32 377.366 50.04 380.406 47.48C383.526 44.84 385.086 41.04 385.086 36.08C385.086 31.12 383.526 27.36 380.406 24.8C377.366 22.16 372.766 20.84 366.606 20.84H353.286V51.32H366.606ZM425.119 31.16H433.879L434.959 47.24L433.999 47.12C434.719 41.76 436.399 37.76 439.039 35.12C441.759 32.48 445.439 31.16 450.079 31.16H463.639V41.48H450.679C447.559 41.48 444.919 42.08 442.759 43.28C440.679 44.4 439.119 46.12 438.079 48.44C437.039 50.68 436.519 53.48 436.519 56.84V95H425.119V31.16ZM408.919 85.04H456.439V95H408.919V85.04ZM408.919 31.16H431.239V41.12H408.919V31.16ZM499.112 96.44C493.272 96.44 488.112 95.08 483.632 92.36C479.232 89.64 475.792 85.76 473.312 80.72C470.912 75.68 469.712 69.8 469.712 63.08C469.712 56.36 470.912 50.48 473.312 45.44C475.792 40.4 479.232 36.52 483.632 33.8C488.112 31.08 493.272 29.72 499.112 29.72C504.952 29.72 510.072 31.08 514.472 33.8C518.952 36.52 522.392 40.4 524.792 45.44C527.272 50.48 528.512 56.36 528.512 63.08C528.512 69.8 527.272 75.68 524.792 80.72C522.392 85.76 518.952 89.64 514.472 92.36C510.072 95.08 504.952 96.44 499.112 96.44ZM499.112 85.76C504.552 85.76 508.792 83.76 511.832 79.76C514.872 75.68 516.392 70.12 516.392 63.08C516.392 56.04 514.872 50.52 511.832 46.52C508.792 42.44 504.552 40.4 499.112 40.4C493.672 40.4 489.432 42.4 486.392 46.4C483.352 50.4 481.832 55.96 481.832 63.08C481.832 70.2 483.352 75.76 486.392 79.76C489.432 83.76 493.672 85.76 499.112 85.76ZM568.665 96.44C562.825 96.44 557.665 95.08 553.185 92.36C548.785 89.64 545.345 85.76 542.865 80.72C540.465 75.68 539.265 69.8 539.265 63.08C539.265 56.36 540.465 50.48 542.865 45.44C545.345 40.4 548.785 36.52 553.185 33.8C557.665 31.08 562.825 29.72 568.665 29.72C574.505 29.72 579.625 31.08 584.025 33.8C588.505 36.52 591.945 40.4 594.345 45.44C596.825 50.48 598.065 56.36 598.065 63.08C598.065 69.8 596.825 75.68 594.345 80.72C591.945 85.76 588.505 89.64 584.025 92.36C579.625 95.08 574.505 96.44 568.665 96.44ZM568.665 85.76C574.105 85.76 578.345 83.76 581.385 79.76C584.425 75.68 585.945 70.12 585.945 63.08C585.945 56.04 584.425 50.52 581.385 46.52C578.345 42.44 574.105 40.4 568.665 40.4C563.225 40.4 558.985 42.4 555.945 46.4C552.905 50.4 551.385 55.96 551.385 63.08C551.385 70.2 552.905 75.76 555.945 79.76C558.985 83.76 563.225 85.76 568.665 85.76ZM623.338 27.8C623.338 21.88 624.818 17.4 627.778 14.36C630.738 11.32 635.338 9.8 641.578 9.8H660.058V19.76H642.058C639.658 19.76 637.818 20.48 636.538 21.92C635.338 23.28 634.738 25.28 634.738 27.92V95H623.338V27.8ZM604.378 31.16H659.098V41.12H604.378V31.16Z" fill="#FF8964"/>
</svg>
